<svg width="59" height="22" viewBox="0 0 59 22" fill="none" xmlns="http://www.w3.org/2000/svg">
<g clip-path="url(#clip0_6613_24375)">
<path d="M53.7937 0.849976C52.7762 0.849976 52.0378 1.67248 52.0378 2.59158C52.0378 3.51138 52.7762 4.33458 53.7937 4.33458C54.8112 4.33458 55.5963 3.58488 55.5963 2.59158C55.5963 1.60038 54.8105 0.849976 53.7937 0.849976ZM52.4785 17.2482H55.1536V6.34708H52.4785V17.2482ZM28.5198 6.07548C25.2872 6.07548 22.7001 8.36798 22.7001 11.7973C22.7001 15.2259 25.2872 17.5212 28.5198 17.5212C29.9952 17.5212 31.3833 17.0543 32.5431 15.9042L30.8539 14.1843C30.2241 14.8591 29.4149 15.34 28.2551 15.34C26.7598 15.34 25.5553 14.3621 25.3759 12.7514H33.5399V12.0024C33.5399 8.20837 31.5118 6.07548 28.5198 6.07548ZM25.3759 10.7074C25.5773 9.13938 26.5591 8.11738 28.1417 8.11738C29.8151 8.11738 30.8408 9.11838 30.8642 10.7074H25.3759ZM37.2731 9.41308C37.2731 8.59478 38.1208 8.25458 38.8358 8.25458C39.7433 8.25458 40.4115 8.63748 40.9237 9.35848L42.6259 7.62668C41.7446 6.50668 40.2836 6.07548 38.9011 6.07548C36.7375 6.07548 34.5959 7.16398 34.5959 9.59508C34.5959 13.7517 40.373 11.9793 40.373 14.227C40.373 15.0901 39.3693 15.4758 38.5889 15.4758C37.4546 15.4758 36.7416 14.9116 36.0521 14.1423L34.323 15.9021C35.4093 17.0998 36.8118 17.5212 38.4329 17.5212C40.6184 17.5212 43.0508 16.6119 43.0508 14.0226C43.0508 9.77568 37.2731 11.3661 37.2731 9.41308ZM47.0012 8.07188H46.9586V6.34708H44.2828V17.2482H46.9586V11.4102C46.9586 10.8208 47.3147 8.66268 49.8358 8.66268C50.2235 8.66268 50.6106 8.74108 51.0169 8.83978L51.1214 6.23158C50.812 6.14268 50.5019 6.07548 50.1713 6.07548C48.7646 6.07548 47.5814 6.82448 47.0012 8.07188ZM10.7603 2.43618C9.92363 2.41028 9.43207 2.52018 8.93775 2.61818C8.78925 2.57898 8.5115 2.62028 8.49569 2.94858C8.49569 3.12498 8.55069 3.26148 8.66069 3.34198C8.77 3.42178 9.68713 4.11198 10.3609 4.84138C10.0378 4.87778 9.68713 4.93798 9.32688 5.01358C8.92469 4.12878 7.63219 4.93378 6.7735 4.96878C6.67313 4.97298 6.57688 4.98628 6.47719 4.99328C6.383 4.25408 6.31563 3.48828 6.33282 2.94928C7.44519 2.30738 9.59706 1.83418 11.0587 1.81108L11.3151 1.80408C11.5296 1.80198 11.5468 1.62838 11.3447 1.60038C9.529 1.34768 7.956 1.72148 6.34038 2.40188C4.65875 3.12358 2.51925 4.78398 1.21575 7.91718C0.910502 8.79008 -0.30981 12.9537 1.85856 16.5272C3.61857 19.4266 5.88388 20.8063 8.65588 21.2004C11.4224 21.5931 12.9232 21.2529 14.6729 20.4619C18.7642 18.6125 21.8889 11.6706 18.7635 6.63898C17.5301 4.31568 14.2982 2.27868 10.7603 2.43618ZM9.20725 5.68908C9.74225 5.56616 10.2848 5.4801 10.8311 5.43148C11.2879 5.98267 11.6904 6.57819 12.0329 7.20948C11.4794 7.48248 10.7418 7.69108 10.4413 8.12788C10.3169 8.30988 10.2859 8.55698 10.2818 8.82438C9.36944 9.04541 8.47762 9.34661 7.61638 9.72458C7.30494 8.79218 7.032 7.86258 6.84363 7.03518C7.73463 6.16928 8.77757 6.02858 9.20725 5.68908ZM13.7516 16.8051C13.5083 16.8317 13.2663 16.8632 13.0531 16.8961C12.5238 16.9808 11.8418 17.1614 11.2072 17.4022C10.8428 16.8121 9.86657 15.3785 9.37363 14.2963C10.365 13.8 11.7503 13.3842 13.3439 13.2855C13.4746 13.5165 13.6189 13.7475 13.8183 13.9547C14.3388 14.4965 13.5151 15.2728 13.7516 16.8051ZM7.83707 10.4071C8.60707 10.0361 9.41832 9.72948 10.2846 9.50688C10.2791 9.73997 10.2536 9.96118 10.1594 10.139C10.0247 10.3952 10.0866 11.1386 10.2516 11.3815C10.7706 12.1508 11.6321 11.7231 12.2804 11.9996C12.5781 12.1263 12.7761 12.337 12.9431 12.5876C11.586 12.6744 10.255 12.9964 9.02025 13.5746C8.38569 12.2026 7.83775 10.4078 7.83775 10.4078L7.83707 10.4071ZM8.40907 13.8637C8.36094 13.8868 8.30938 13.9155 8.25988 13.9407C7.52136 13.7276 6.77457 13.5454 6.02138 13.3947C5.33732 13.2519 5.31257 13.2897 4.54257 13.5172C4.43257 13.5494 4.32738 13.5788 4.22494 13.6103C4.11809 13.3317 4.01609 13.0512 3.919 12.7689C4.90625 11.9947 5.90175 11.3451 7.23344 10.6794C7.57719 11.7231 8.06875 13.1175 8.40907 13.8637ZM8.93707 17.0333C9.1385 16.4978 9.29525 16.1016 9.353 15.7103C9.74419 16.3809 10.211 17.1103 10.5726 17.6808C10.0096 17.9587 9.35438 18.3878 8.73563 18.8603C8.77825 18.1344 8.79269 17.4155 8.93707 17.0333ZM12.6042 6.78808C12.5973 6.79788 12.5849 6.80628 12.5767 6.81608C12.288 6.30632 11.9722 5.81302 11.6307 5.33838C12.323 5.29568 13.1748 5.33278 13.9503 5.41398C13.2532 5.66808 12.9459 6.29178 12.6042 6.78808ZM6.39744 7.55388C6.4105 7.53568 6.42425 7.52098 6.43663 7.50348C6.5975 8.33088 6.78932 9.01548 7.04575 9.96607C6.08188 10.3987 4.37757 11.4697 3.62475 12.0465C3.48863 11.6951 3.347 11.1967 3.21982 10.6843C3.391 10.1684 3.74094 9.80648 4.23457 9.75678C5.07882 9.67068 5.80206 8.39178 6.39744 7.55388ZM2.67807 6.30508C3.58075 5.01848 4.80657 3.76618 5.92513 3.14108C5.91413 3.42108 5.98425 4.23798 6.075 5.02618C5.68313 5.06608 5.29538 5.11578 4.91175 5.17388C4.00463 5.96035 3.27425 6.93629 2.77019 8.03548C2.68975 7.29768 2.64713 6.68238 2.67807 6.30508ZM2.08888 7.31168C2.08888 7.31168 2.1315 8.05368 2.16657 8.59478C2.16657 8.59478 1.62963 9.21498 1.35531 9.70778C1.46463 8.69768 1.69769 8.17688 2.08888 7.31168ZM7.35788 20.1609C4.57625 19.274 2.51513 16.887 1.7795 14.3838C1.35307 12.9152 1.20126 11.3783 1.33194 9.85268C1.37044 9.85968 1.45981 9.90308 1.59319 9.86458C1.686 9.79948 2.01669 9.56357 2.25113 9.35497L2.2635 9.44668C2.10538 10.0557 2.00844 10.6892 1.9885 11.3437C2.24288 11.6167 2.54125 12.0703 2.87263 12.5386C2.6595 12.6996 2.25044 12.9873 2.15419 13.0573C1.87231 13.2617 1.87507 13.5844 2.07582 13.7678C2.1865 13.8686 2.41407 13.8266 2.49725 13.7608C2.74338 13.5613 2.94825 13.4017 3.23013 13.2218C3.33325 13.4969 3.43088 13.7454 3.52575 13.982C3.40544 14.1136 3.3195 14.2872 3.29063 14.5406C3.19782 15.361 3.96369 16.005 4.60925 16.1926C4.63332 16.1996 4.6505 16.2024 4.67388 16.2087C4.70825 16.2619 4.73919 16.3116 4.77563 16.3655C4.44082 16.6301 4.21188 16.901 4.05444 17.1096C3.96369 17.23 3.86194 17.4106 3.94444 17.4463C4.029 17.4813 4.31225 17.4463 4.43875 17.4225C4.75913 17.3595 5.00663 16.9983 5.228 16.8653C5.49407 17.2391 5.92719 17.7193 6.3775 18.1813C6.39744 18.2653 6.41532 18.3535 6.438 18.427C6.52394 18.7091 6.63944 18.9898 6.77832 19.2642C7.10213 19.4182 7.43969 19.5456 7.78481 19.6569C7.63297 19.8165 7.4902 19.9847 7.35719 20.1609H7.35788ZM8.03782 20.38C8.14438 20.2379 8.25232 20.0622 8.385 19.9418C8.70675 20.1588 9.05119 20.4073 9.3255 20.5676C8.90269 20.5186 8.40631 20.5081 8.03782 20.38ZM10.178 20.597C10.178 20.597 9.07525 19.8536 8.79681 19.5673C9.34888 19.1004 10.2419 18.546 10.9473 18.245C11.2237 18.686 12.1346 19.9999 12.4997 20.4234C11.8376 20.541 10.9116 20.6292 10.178 20.597ZM14.787 19.54C14.5904 19.6723 13.643 20.1098 13.2718 20.2316C12.6505 19.5348 12.0892 18.7849 11.5943 17.9902C12.1745 17.7424 13.0676 17.5212 13.8946 17.4162C13.9696 17.6556 14.0665 17.909 14.1999 18.182C14.3305 18.4494 14.4824 18.6454 14.6461 18.7791C14.7045 18.742 14.7588 18.6986 14.8166 18.6601C14.8124 18.9541 14.8042 19.2523 14.787 19.54ZM14.5601 4.50608C14.3745 4.38568 14.1428 4.43048 14.2391 4.64118C14.2755 4.72308 14.4171 4.86098 14.5326 4.99958C13.8548 4.80918 12.0521 4.66428 11.1941 4.74478C10.6338 4.10358 9.99513 3.32518 9.22719 2.80928C12.664 2.59158 15.7516 4.03848 17.1149 5.73948C16.6604 5.49868 15.6801 5.15568 15.2813 5.06538C15.0661 4.84208 14.7946 4.65938 14.5594 4.50538L14.5601 4.50608ZM15.3123 19.2516C15.3281 18.9667 15.3398 18.6062 15.3487 18.2744C15.6835 18.0098 15.9991 17.7214 16.2906 17.4078C16.6666 17.4519 17.0427 17.517 17.2716 17.5758C16.7629 18.231 16.0603 18.777 15.3123 19.2516ZM17.9419 16.6448C17.8594 16.8219 17.6477 17.1264 17.5068 17.2706C17.2923 17.1824 16.9698 17.09 16.6323 17.0081C16.6859 16.9423 16.7443 16.8807 16.7973 16.8128C16.9815 15.5556 16.5649 15.1538 17.086 14.003L17.2043 13.7433C17.4916 13.8259 17.7625 13.9162 17.9969 14.0135C18.0265 14.4447 18.0244 15.9231 17.9419 16.6448ZM17.4552 13.2029C17.5899 12.918 17.7384 12.6149 17.8986 12.3139C17.9406 12.6968 17.9708 13.0699 17.9887 13.408C17.814 13.3315 17.6359 13.2631 17.4552 13.2029ZM18.9801 13.9911L18.8467 14.5203C18.7525 14.8808 18.439 15.7327 18.2747 16.0764C18.3373 15.6123 18.3923 14.4076 18.3764 14.1654C18.4864 14.1997 18.7216 14.0625 18.7608 13.9267C18.7999 13.7902 18.373 13.5802 18.373 13.5802C18.374 12.9482 18.3345 12.3169 18.2548 11.6902C18.3524 11.5292 18.4514 11.3738 18.5531 11.2317C18.5343 10.8617 18.4915 10.4934 18.4253 10.1292C18.5112 10.1579 18.5903 10.181 18.6473 10.1817C18.8419 10.1845 18.8412 10.0487 18.7793 9.97308C18.7394 9.92408 18.5538 9.80648 18.3373 9.67908C18.0197 8.29315 17.3621 7.01186 16.426 5.95508C16.7924 6.09648 17.2606 6.29108 17.6319 6.49688C17.9138 6.85808 18.7216 7.66938 19.1526 9.94088C19.5404 11.9863 19.1114 13.541 18.9801 13.9911ZM56.2749 6.51788V6.34988H57.1123V6.51788H56.7905V7.35158H56.5959V6.51788H56.2749ZM57.5605 6.34988L57.8114 7.06738L58.0644 6.35058H58.3436V7.35158H58.1634V6.54378L57.8912 7.35158H57.7338L57.4588 6.54378V7.35158H57.2793V6.35058L57.5605 6.34988Z" fill="white"/>
</g>
<defs>
<clipPath id="clip0_6613_24375">
<rect width="57.75" height="21" fill="white" transform="translate(0.666016 0.5)"/>
</clipPath>
</defs>
</svg>
