<svg width="49" height="48" viewBox="0 0 49 48" fill="none" xmlns="http://www.w3.org/2000/svg">
<path d="M18.9785 6C19.7042 6 20.4045 6.26688 20.9414 6.74902C20.9476 6.75605 20.9538 6.7634 20.9609 6.76953L33.5977 18.543C27.7496 20.223 23.4707 25.6117 23.4707 32C23.4707 35.9179 25.0811 39.4589 27.6748 42H19.3877C18.6142 42 17.8722 41.6964 17.3252 41.1562C16.7783 40.6162 16.4708 39.8839 16.4707 39.1201V31.5C16.4707 31.1181 16.3174 30.7515 16.0439 30.4814C15.7705 30.2114 15.3994 30.0597 15.0127 30.0596H10.9287C10.5421 30.0597 10.1709 30.2114 9.89746 30.4814C9.62402 30.7515 9.4707 31.1181 9.4707 31.5V42H4.3877C3.61417 42 2.87217 41.6964 2.3252 41.1562C1.7783 40.6162 1.4708 39.8839 1.4707 39.1201V22.4775C1.47064 22.0789 1.55457 21.6844 1.7168 21.3193C1.87902 20.9544 2.11598 20.6262 2.41309 20.3564L16.9961 6.76953L17.0166 6.74902C17.5534 6.26704 18.253 6.00009 18.9785 6Z" fill="#5E63E5"/>
<path d="M37.4707 21C35.2951 21 33.1684 21.6451 31.3594 22.8538C29.5505 24.0625 28.1406 25.7805 27.308 27.7905C26.4755 29.8005 26.2576 32.0122 26.6821 34.146C27.1065 36.2798 28.1542 38.2398 29.6925 39.7782C31.2309 41.3165 33.1909 42.3642 35.3247 42.7886C37.4585 43.2131 39.6702 42.9952 41.6802 42.1627C43.6902 41.3301 45.4082 39.9202 46.6169 38.1113C47.8256 36.3023 48.4707 34.1756 48.4707 32C48.4676 29.0836 47.3077 26.2875 45.2455 24.2252C43.1832 22.163 40.3871 21.0031 37.4707 21ZM38.7399 37.0769H38.3169V37.9231C38.3169 38.1475 38.2277 38.3627 38.069 38.5214C37.9103 38.6801 37.6951 38.7692 37.4707 38.7692C37.2463 38.7692 37.0311 38.6801 36.8724 38.5214C36.7137 38.3627 36.6246 38.1475 36.6246 37.9231V37.0769H34.9322C34.7078 37.0769 34.4926 36.9878 34.3339 36.8291C34.1752 36.6704 34.0861 36.4552 34.0861 36.2308C34.0861 36.0064 34.1752 35.7911 34.3339 35.6324C34.4926 35.4738 34.7078 35.3846 34.9322 35.3846H38.7399C39.0766 35.3846 39.3994 35.2509 39.6374 35.0129C39.8754 34.7748 40.0092 34.452 40.0092 34.1154C40.0092 33.7788 39.8754 33.4559 39.6374 33.2179C39.3994 32.9799 39.0766 32.8462 38.7399 32.8462H36.2015C35.416 32.8462 34.6627 32.5341 34.1074 31.9787C33.552 31.4233 33.2399 30.6701 33.2399 29.8846C33.2399 29.0992 33.552 28.3459 34.1074 27.7905C34.6627 27.2351 35.416 26.9231 36.2015 26.9231H36.6246V26.0769C36.6246 25.8525 36.7137 25.6373 36.8724 25.4786C37.0311 25.3199 37.2463 25.2308 37.4707 25.2308C37.6951 25.2308 37.9103 25.3199 38.069 25.4786C38.2277 25.6373 38.3169 25.8525 38.3169 26.0769V26.9231H40.0092C40.2336 26.9231 40.4488 27.0122 40.6075 27.1709C40.7662 27.3296 40.8553 27.5448 40.8553 27.7692C40.8553 27.9936 40.7662 28.2089 40.6075 28.3676C40.4488 28.5262 40.2336 28.6154 40.0092 28.6154H36.2015C35.8649 28.6154 35.542 28.7491 35.304 28.9871C35.066 29.2252 34.9322 29.548 34.9322 29.8846C34.9322 30.2212 35.066 30.5441 35.304 30.7821C35.542 31.0201 35.8649 31.1538 36.2015 31.1538H38.7399C39.5254 31.1538 40.2787 31.4659 40.8341 32.0213C41.3895 32.5767 41.7015 33.3299 41.7015 34.1154C41.7015 34.9008 41.3895 35.6541 40.8341 36.2095C40.2787 36.7649 39.5254 37.0769 38.7399 37.0769Z" fill="#5E63E5"/>
</svg>
