<svg width="48" height="48" viewBox="0 0 48 48" fill="none" xmlns="http://www.w3.org/2000/svg">
<path d="M11.4502 4.25C11.9116 4.25005 12.3542 4.43516 12.6807 4.76465L20.4629 12.6299L13.8301 19.2627C13.7678 19.2294 13.6987 19.21 13.627 19.21H9.27246C9.15715 19.2101 9.04639 19.2565 8.96484 19.3389C8.8834 19.4213 8.83798 19.5329 8.83789 19.6494V25.3701C8.83785 25.6035 8.74531 25.8272 8.58203 25.9922C8.41877 26.1571 8.19763 26.25 7.9668 26.25H1.87109C1.64013 26.25 1.4182 26.1572 1.25488 25.9922C1.09168 25.8272 1.00004 25.6034 1 25.3701V14.8096C1.00022 14.3429 1.18407 13.8953 1.51074 13.5654L10.2188 4.76465C10.5453 4.43493 10.9886 4.25 11.4502 4.25Z" fill="#5E63E5"/>
<path d="M36.5498 4.25C37.0114 4.25 37.4547 4.43493 37.7812 4.76465L46.4893 13.5654C46.8159 13.8953 46.9998 14.3429 47 14.8096V25.3701C47 25.6034 46.9083 25.8272 46.7451 25.9922C46.5818 26.1572 46.3599 26.25 46.1289 26.25H40.0332C39.8024 26.25 39.5812 26.1571 39.418 25.9922C39.2547 25.8272 39.1621 25.6035 39.1621 25.3701V19.6494C39.162 19.5329 39.1166 19.4213 39.0352 19.3389C38.9536 19.2565 38.8429 19.2101 38.7275 19.21H34.373C34.3463 19.21 34.3199 19.2129 34.2939 19.2178L27.6211 12.5439L35.3193 4.76465C35.6458 4.43516 36.0884 4.25005 36.5498 4.25Z" fill="#5E63E5"/>
<path d="M38 36.9999H36V25.4437C36 25.1669 35.9426 24.8931 35.8314 24.6396C35.7201 24.3862 35.5575 24.1586 35.3538 23.9712L25.3538 14.5362C25.3489 14.5319 25.3443 14.5273 25.34 14.5224C24.9718 14.1876 24.492 14.0021 23.9944 14.0021C23.4967 14.0021 23.0169 14.1876 22.6488 14.5224L22.635 14.5362L12.6462 23.9712C12.4425 24.1586 12.2799 24.3862 12.1686 24.6396C12.0574 24.8931 12 25.1669 12 25.4437V36.9999H10C9.73478 36.9999 9.48043 37.1053 9.29289 37.2928C9.10536 37.4804 9 37.7347 9 37.9999C9 38.2652 9.10536 38.5195 9.29289 38.7071C9.48043 38.8946 9.73478 38.9999 10 38.9999H38C38.2652 38.9999 38.5196 38.8946 38.7071 38.7071C38.8946 38.5195 39 38.2652 39 37.9999C39 37.7347 38.8946 37.4804 38.7071 37.2928C38.5196 37.1053 38.2652 36.9999 38 36.9999ZM27 36.9999H21V30.9999C21 30.7347 21.1054 30.4804 21.2929 30.2928C21.4804 30.1053 21.7348 29.9999 22 29.9999H26C26.2652 29.9999 26.5196 30.1053 26.7071 30.2928C26.8946 30.4804 27 30.7347 27 30.9999V36.9999Z" fill="#5E63E5"/>
</svg>
