<svg width="49" height="48" viewBox="0 0 49 48" fill="none" xmlns="http://www.w3.org/2000/svg">
<path d="M39.4577 36.5C39.4577 37.2142 39.2426 37.9124 38.8397 38.5062C38.4368 39.1001 37.8642 39.5629 37.1942 39.8362C36.5242 40.1095 35.7869 40.1811 35.0757 40.0417C34.3644 39.9024 33.7111 39.5585 33.1983 39.0534C32.6855 38.5484 32.3363 37.905 32.1948 37.2045C32.0533 36.504 32.1259 35.7779 32.4035 35.1181C32.681 34.4582 33.1509 33.8943 33.7539 33.4975C34.3569 33.1007 35.0658 32.8889 35.791 32.8889C36.7635 32.8889 37.6961 33.2693 38.3837 33.9466C39.0714 34.6238 39.4577 35.5423 39.4577 36.5ZM46.791 30.7222V42.2778C46.791 42.4693 46.7138 42.653 46.5762 42.7885C46.4387 42.9239 46.2522 43 46.0577 43H25.5243C25.3299 43 25.1433 42.9239 25.0058 42.7885C24.8683 42.653 24.791 42.4693 24.791 42.2778V30.7222C24.791 30.5307 24.8683 30.347 25.0058 30.2115C25.1433 30.0761 25.3299 30 25.5243 30H46.0577C46.2522 30 46.4387 30.0761 46.5762 30.2115C46.7138 30.347 46.791 30.5307 46.791 30.7222ZM45.3243 34.9066C44.4917 34.6641 43.7338 34.2203 43.1198 33.6156C42.5058 33.0109 42.0551 32.2645 41.8089 31.4444H29.7731C29.5269 32.2645 29.0763 33.0109 28.4623 33.6156C27.8482 34.2203 27.0904 34.6641 26.2577 34.9066V38.0934C27.0904 38.3359 27.8482 38.7797 28.4623 39.3844C29.0763 39.9891 29.5269 40.7355 29.7731 41.5556H41.8089C42.0551 40.7355 42.5058 39.9891 43.1198 39.3844C43.7338 38.7797 44.4917 38.3359 45.3243 38.0934V34.9066Z" fill="#676DFD"/>
<path d="M19.791 4C20.5863 4 21.3496 4.31575 21.9121 4.87793L36.9121 19.8779C37.4747 20.4402 37.7906 21.2036 37.791 21.999V27H22.791C22.2387 27 21.791 27.4477 21.791 28V41.499H18.291C17.8933 41.499 17.5118 41.3407 17.2305 41.0596C16.9493 40.7784 16.7911 40.3967 16.791 39.999V30.249C16.791 30.0502 16.7118 29.8594 16.5713 29.7188C16.4306 29.5781 16.2399 29.499 16.041 29.499H10.541C10.3421 29.499 10.1514 29.5781 10.0107 29.7188C9.87022 29.8594 9.79102 30.0502 9.79102 30.249V41.499H3.29102C2.89329 41.499 2.51175 41.3407 2.23047 41.0596C1.94926 40.7784 1.79112 40.3967 1.79102 39.999V21.999C1.79138 21.2036 2.10736 20.4402 2.66992 19.8779L17.6699 4.87793C18.2325 4.31575 18.9957 4 19.791 4Z" fill="#676DFD"/>
</svg>
