<svg width="49" height="48" viewBox="0 0 49 48" fill="none" xmlns="http://www.w3.org/2000/svg">
<path d="M34.8571 30.6429C34.7017 30.6429 34.5498 30.5968 34.4206 30.5104C34.2914 30.4241 34.1907 30.3014 34.1312 30.1578C34.0718 30.0143 34.0562 29.8563 34.0865 29.7039C34.1168 29.5514 34.1917 29.4114 34.3016 29.3016C34.4114 29.1917 34.5514 29.1168 34.7039 29.0865C34.8563 29.0562 35.0143 29.0718 35.1578 29.1312C35.3014 29.1907 35.4241 29.2914 35.5104 29.4206C35.5968 29.5498 35.6429 29.7017 35.6429 29.8571C35.6429 30.0655 35.5601 30.2654 35.4127 30.4127C35.2654 30.5601 35.0655 30.6429 34.8571 30.6429ZM41.1429 35.3571C40.9875 35.3571 40.8355 35.4032 40.7063 35.4896C40.5771 35.5759 40.4764 35.6986 40.417 35.8422C40.3575 35.9857 40.3419 36.1437 40.3722 36.2961C40.4026 36.4486 40.4774 36.5886 40.5873 36.6984C40.6972 36.8083 40.8372 36.8832 40.9896 36.9135C41.142 36.9438 41.3 36.9282 41.4435 36.8688C41.5871 36.8093 41.7098 36.7086 41.7962 36.5794C41.8825 36.4502 41.9286 36.2983 41.9286 36.1429C41.9286 35.9345 41.8458 35.7346 41.6984 35.5873C41.5511 35.4399 41.3512 35.3571 41.1429 35.3571ZM49 33C49 34.0254 48.2624 34.7944 47.6112 35.473C47.241 35.86 46.8579 36.2587 46.7136 36.6094C46.58 36.9305 46.5721 37.4629 46.5643 37.9785C46.5496 38.9371 46.5338 40.0233 45.7786 40.7786C45.0233 41.5338 43.9371 41.5496 42.9785 41.5643C42.4629 41.5721 41.9305 41.58 41.6094 41.7136C41.2587 41.8579 40.86 42.241 40.473 42.6112C39.7944 43.2624 39.0254 44 38 44C36.9746 44 36.2056 43.2624 35.527 42.6112C35.14 42.241 34.7413 41.8579 34.3906 41.7136C34.0695 41.58 33.5371 41.5721 33.0215 41.5643C32.0629 41.5496 30.9767 41.5338 30.2214 40.7786C29.4662 40.0233 29.4504 38.9371 29.4357 37.9785C29.4279 37.4629 29.42 36.9305 29.2864 36.6094C29.1421 36.2587 28.759 35.86 28.3887 35.473C27.7376 34.7944 27 34.0254 27 33C27 31.9746 27.7376 31.2056 28.3887 30.527C28.759 30.14 29.1421 29.7413 29.2864 29.3906C29.42 29.0695 29.4279 28.5371 29.4357 28.0215C29.4504 27.0629 29.4662 25.9767 30.2214 25.2214C30.9767 24.4662 32.0629 24.4504 33.0215 24.4357C33.5371 24.4279 34.0695 24.42 34.3906 24.2864C34.7413 24.1421 35.14 23.759 35.527 23.3887C36.2056 22.7376 36.9746 22 38 22C39.0254 22 39.7944 22.7376 40.473 23.3887C40.86 23.759 41.2587 24.1421 41.6094 24.2864C41.9305 24.42 42.4629 24.4279 42.9785 24.4357C43.9371 24.4504 45.0233 24.4662 45.7786 25.2214C46.5338 25.9767 46.5496 27.0629 46.5643 28.0215C46.5721 28.5371 46.58 29.0695 46.7136 29.3906C46.8579 29.7413 47.241 30.14 47.6112 30.527C48.2624 31.2056 49 31.9746 49 33ZM34.8571 32.2143C35.3233 32.2143 35.7791 32.076 36.1667 31.817C36.5543 31.558 36.8565 31.1899 37.0349 30.7592C37.2133 30.3285 37.2599 29.8545 37.169 29.3973C37.078 28.94 36.8535 28.52 36.5239 28.1904C36.1942 27.8607 35.7742 27.6362 35.317 27.5453C34.8598 27.4543 34.3858 27.501 33.9551 27.6794C33.5244 27.8578 33.1563 28.16 32.8973 28.5476C32.6382 28.9352 32.5 29.3909 32.5 29.8571C32.5 30.4823 32.7483 31.0818 33.1904 31.5239C33.6324 31.9659 34.232 32.2143 34.8571 32.2143ZM42.4845 29.6273C42.5575 29.5543 42.6154 29.4677 42.6549 29.3723C42.6944 29.2769 42.7147 29.1747 42.7147 29.0714C42.7147 28.9682 42.6944 28.866 42.6549 28.7706C42.6154 28.6752 42.5575 28.5885 42.4845 28.5155C42.4115 28.4425 42.3248 28.3846 42.2294 28.3451C42.134 28.3056 42.0318 28.2853 41.9286 28.2853C41.8253 28.2853 41.7231 28.3056 41.6277 28.3451C41.5323 28.3846 41.4457 28.4425 41.3727 28.5155L33.5155 36.3727C33.4425 36.4457 33.3846 36.5323 33.3451 36.6277C33.3056 36.7231 33.2853 36.8253 33.2853 36.9286C33.2853 37.0318 33.3056 37.134 33.3451 37.2294C33.3846 37.3248 33.4425 37.4115 33.5155 37.4845C33.663 37.6319 33.8629 37.7147 34.0714 37.7147C34.1747 37.7147 34.2769 37.6944 34.3723 37.6549C34.4677 37.6154 34.5543 37.5575 34.6273 37.4845L42.4845 29.6273ZM43.5 36.1429C43.5 35.6767 43.3618 35.2209 43.1028 34.8333C42.8437 34.4457 42.4756 34.1435 42.0449 33.9651C41.6142 33.7867 41.1402 33.7401 40.683 33.831C40.2258 33.922 39.8058 34.1465 39.4761 34.4761C39.1465 34.8058 38.922 35.2258 38.831 35.683C38.7401 36.1402 38.7867 36.6142 38.9651 37.0449C39.1435 37.4756 39.4457 37.8437 39.8333 38.1028C40.2209 38.3618 40.6767 38.5 41.1429 38.5C41.768 38.5 42.3676 38.2517 42.8096 37.8096C43.2517 37.3676 43.5 36.768 43.5 36.1429Z" fill="#5E63E5"/>
<path d="M19 4C19.7953 4 20.5585 4.31575 21.1211 4.87793L36.1211 19.8779C36.1802 19.937 36.2355 19.9992 36.2891 20.0625C34.7095 20.3428 33.6197 21.4871 33.1445 21.9434C32.9384 22.1406 32.7935 22.2787 32.6641 22.3867C32.6518 22.397 32.6393 22.4047 32.6289 22.4131C32.6242 22.4135 32.6193 22.4146 32.6143 22.415C32.5352 22.4216 32.4477 22.4256 32.3457 22.4287L31.9912 22.4355C31.2134 22.4475 29.2316 22.3837 27.8076 23.8076C26.5615 25.0537 26.4545 26.7267 26.4395 27.6465L26.4355 27.9912C26.4314 28.2651 26.4281 28.4564 26.415 28.6143C26.4146 28.6193 26.4135 28.6242 26.4131 28.6289C26.4047 28.6393 26.397 28.6518 26.3867 28.6641C26.279 28.7931 26.1417 28.9374 25.9453 29.1426C25.4251 29.6847 24 31.033 24 33C24 34.9646 25.4225 36.311 25.9443 36.8545L25.9434 36.8555C26.1406 37.0616 26.2787 37.2065 26.3867 37.3359C26.3968 37.348 26.4049 37.3599 26.4131 37.3701C26.4135 37.3752 26.4146 37.3803 26.415 37.3857C26.4281 37.5436 26.4314 37.7349 26.4355 38.0088L26.4395 38.3535C26.4519 39.1111 26.5277 40.3789 27.25 41.499H17.5C17.1023 41.499 16.7207 41.3407 16.4395 41.0596C16.1582 40.7784 16.0001 40.3967 16 39.999V30.249C16 30.0502 15.9208 29.8594 15.7803 29.7188C15.6396 29.5781 15.4489 29.499 15.25 29.499H9.75C9.55109 29.499 9.36038 29.5781 9.21973 29.7188C9.0792 29.8594 9 30.0502 9 30.249V41.499H2.5C2.10227 41.499 1.72074 41.3407 1.43945 41.0596C1.15825 40.7784 1.00011 40.3967 1 39.999V21.999C1.00037 21.2036 1.31634 20.4402 1.87891 19.8779L16.8789 4.87793C17.4415 4.31575 18.2047 4 19 4ZM33.4424 37.6221L33.3721 37.6553C33.4052 37.6415 33.4369 37.6246 33.4678 37.6064C33.4592 37.6115 33.4511 37.6174 33.4424 37.6221ZM32.6475 37.5889C32.6438 37.5865 32.6394 37.5854 32.6357 37.583L32.5732 37.5371C32.5967 37.5563 32.6221 37.5726 32.6475 37.5889ZM32.4287 37.3799C32.4252 37.3749 32.4213 37.3703 32.418 37.3652L32.3779 37.2988C32.393 37.327 32.4104 37.3538 32.4287 37.3799ZM28.3672 36.9082C28.3809 36.9862 28.3929 37.0693 28.4014 37.1562C28.3929 37.0692 28.3812 36.9862 28.3672 36.9082ZM32.4053 36.5127C32.4095 36.5059 32.4135 36.4989 32.418 36.4922L32.4639 36.4297C32.4424 36.4559 32.4233 36.4839 32.4053 36.5127ZM28.1377 36.3379L28.2217 36.4756C28.1818 36.4035 28.1324 36.3307 28.0781 36.2559C28.0984 36.2837 28.1193 36.3104 28.1377 36.3379ZM27.2861 35.3652C27.2383 35.3151 27.1896 35.2651 27.1416 35.2139L26.8975 34.9443C27.0245 35.0894 27.1562 35.2292 27.2861 35.3652ZM33.8574 32.2139C33.7827 32.2139 33.7085 32.2091 33.6348 32.2021C33.7085 32.2091 33.7827 32.2139 33.8574 32.2139ZM33.5742 32.1943C33.5218 32.188 33.4697 32.1807 33.418 32.1709C33.4697 32.1807 33.5218 32.188 33.5742 32.1943ZM33.3438 32.1543C33.2985 32.1442 33.2535 32.1338 33.209 32.1211C33.2535 32.1338 33.2985 32.1442 33.3438 32.1543ZM33.127 32.0957C33.0821 32.0811 33.038 32.0651 32.9941 32.0479C33.038 32.0651 33.0822 32.0811 33.127 32.0957ZM32.9238 32.0195C32.8795 32.0004 32.836 31.9798 32.793 31.958C32.836 31.9798 32.8795 32.0004 32.9238 32.0195ZM32.5439 31.8125C32.4822 31.771 32.4212 31.7281 32.3633 31.6807L32.1904 31.5234C32.2991 31.6321 32.4181 31.728 32.5439 31.8125ZM28.2217 29.5244C28.2001 29.5634 28.1749 29.602 28.1484 29.6416L28.2217 29.5244ZM28.4082 28.7793C28.3984 28.8978 28.3848 29.0104 28.3652 29.1133L28.3896 28.9521L28.4082 28.7793ZM31.7266 28.8506L31.6582 29.0098C31.6789 28.956 31.7009 28.9028 31.7256 28.8506L31.8057 28.6963C31.7771 28.7467 31.7512 28.7984 31.7266 28.8506ZM32.1113 28.2734C32.0336 28.3591 31.9622 28.4509 31.8975 28.5479C31.9298 28.4995 31.9634 28.4519 31.999 28.4062L32.1113 28.2734ZM32.3623 28.0352L32.2324 28.1494C32.274 28.1098 32.317 28.0716 32.3613 28.0352L32.499 27.9307C32.4521 27.9637 32.4066 27.9988 32.3623 28.0352ZM35.293 27.9912C35.3093 28.0038 35.3258 28.0162 35.3418 28.0293C35.3258 28.0162 35.3093 28.0038 35.293 27.9912ZM35.1426 27.8838C35.1577 27.8937 35.1726 27.9038 35.1875 27.9141C35.1726 27.9038 35.1577 27.8937 35.1426 27.8838ZM34.9805 27.7852C34.9951 27.7931 35.009 27.8023 35.0234 27.8105C35.009 27.8023 34.9951 27.7931 34.9805 27.7852ZM33.0771 24.3691C33.0457 24.3746 33.0135 24.3803 32.9805 24.3848C33.0135 24.3801 33.0457 24.3747 33.0771 24.3691ZM35.0557 22.8975C34.8722 23.0581 34.6969 23.226 34.5273 23.3887C34.6122 23.3073 34.6981 23.2241 34.7861 23.1416L35.0557 22.8975ZM32.7295 31.9258C32.6717 31.8943 32.6157 31.8596 32.5605 31.8232C32.6157 31.8596 32.6717 31.8943 32.7295 31.9258Z" fill="#5E63E5"/>
</svg>
