<svg width="91" height="28" viewBox="0 0 91 28" fill="none" xmlns="http://www.w3.org/2000/svg">
<path fill-rule="evenodd" clip-rule="evenodd" d="M50.3197 12.0048C50.777 10.5482 51.8214 9.76126 53.2894 9.54023C54.3291 9.38415 55.3605 9.43777 56.3713 9.7696C56.6409 9.85777 56.7566 9.94475 56.7566 9.94475C56.7566 9.94475 56.8534 11.4115 56.8917 12.0084C56.0491 11.679 55.2136 11.5008 54.3427 11.5199C53.3549 11.5408 52.733 12.015 52.4994 12.9795C52.1111 14.563 52.4994 15.8153 52.4994 15.8153C52.733 16.7798 53.3549 17.254 54.3427 17.2748C55.2136 17.2933 56.0491 17.1152 56.8917 16.7857C56.8534 17.3827 56.7566 18.8494 56.7566 18.8494C56.7566 18.8494 56.6409 18.937 56.3713 19.0251C55.3605 19.357 54.3291 19.4106 53.2894 19.2539C51.8214 19.0335 50.8024 18.2787 50.3197 16.7899C49.8837 15.4429 49.9244 13.3655 50.3197 12.0048Z" fill="white"/>
<path fill-rule="evenodd" clip-rule="evenodd" d="M44.3379 15.1948C43.6127 15.1948 43.0557 15.5296 43.0557 16.3154C43.0557 16.932 43.3141 17.3174 43.8983 17.4425C44.3745 17.5355 44.8678 17.5504 45.3646 17.4235C45.9021 17.2865 46.2939 16.9034 46.3759 16.3505C46.4308 15.9853 46.4284 15.5457 46.4285 15.1948H44.3379ZM46.7695 19.1678C46.7695 19.1678 46.5335 18.4821 46.4284 18.2003C45.7056 19.343 44.5981 19.3781 43.4723 19.3346C42.9271 19.3132 42.4049 19.169 41.9376 18.8711C41.1062 18.3409 40.7787 17.5307 40.7321 16.5835C40.6518 14.9505 41.5463 13.8686 43.1578 13.6578C43.5944 13.6 44.0393 13.5976 44.4813 13.5904C45.1185 13.5797 45.7758 13.5875 46.4314 13.5875C46.4314 13.5875 46.4615 12.8356 46.3216 12.4025C46.1051 11.7281 45.3268 11.5893 44.7374 11.5691C43.1826 11.516 41.4915 11.9146 41.4915 11.9146L41.8538 9.83126C43.3673 9.57032 44.9893 9.32428 46.5099 9.71985C47.7921 10.0535 48.5373 10.9578 48.6913 12.2851C48.7237 12.564 48.7468 12.8457 48.7473 13.1257C48.7515 15.0703 48.7473 19.1678 48.7473 19.1678H46.7695Z" fill="white"/>
<path fill-rule="evenodd" clip-rule="evenodd" d="M82.0754 15.1948C81.3502 15.1948 80.7932 15.5296 80.7932 16.3154C80.7932 16.932 81.0516 17.3174 81.6358 17.4425C82.112 17.5355 82.6053 17.5504 83.1021 17.4235C83.6396 17.2865 84.0308 16.9034 84.1134 16.3505C84.1677 15.9853 84.1659 15.5457 84.1659 15.1948H82.0754ZM84.507 19.1678C84.507 19.1678 84.271 18.4821 84.1659 18.2003C83.4431 19.343 82.3356 19.3781 81.2092 19.3346C80.6646 19.3132 80.1424 19.169 79.6751 18.8711C78.8437 18.3409 78.5162 17.5307 78.4696 16.5835C78.3887 14.9505 79.2838 13.8686 80.8953 13.6578C81.3319 13.6 81.7768 13.5976 82.2182 13.5904C82.856 13.5797 83.5133 13.5875 84.1689 13.5875C84.1689 13.5875 84.199 12.8356 84.0591 12.4025C83.842 11.7281 83.0643 11.5893 82.4748 11.5691C80.9201 11.516 79.2284 11.9146 79.2284 11.9146L79.5913 9.83126C81.1042 9.57032 82.7268 9.32428 84.2468 9.71985C85.5296 10.0535 86.2742 10.9578 86.4288 12.2851C86.4612 12.564 86.4843 12.8457 86.4848 13.1257C86.489 15.0703 86.4848 19.1678 86.4848 19.1678H84.507Z" fill="white"/>
<path fill-rule="evenodd" clip-rule="evenodd" d="M37.0826 19.1678H39.4434V5.95703L37.0826 6.4104V19.1678Z" fill="white"/>
<path fill-rule="evenodd" clip-rule="evenodd" d="M31.3239 12.3568H29.1106V8.2956H31.3239C32.5553 8.35994 33.1932 9.22854 33.1932 10.3277C33.1932 11.549 32.445 12.2806 31.3239 12.3568ZM31.3239 6.10622H26.5527V19.168H29.1106V14.5492H31.3239C33.6334 14.5492 35.7021 13.4071 35.7021 10.3277C35.7021 7.24827 33.6334 6.10622 31.3239 6.10622Z" fill="white"/>
<path fill-rule="evenodd" clip-rule="evenodd" d="M88.3689 19.168H90.6666V9.6527H88.3689V19.168Z" fill="white"/>
<path fill-rule="evenodd" clip-rule="evenodd" d="M69.7868 10.7086L69.5236 9.64044H67.5416V19.1677H69.8523V13.828C69.8523 13.828 69.8617 13.4473 69.8865 13.259C70.0199 12.2379 70.8536 11.5671 71.7151 11.5206C72.2208 11.4932 72.635 11.5534 73.0433 11.697L73.4186 9.69227C71.8927 9.18707 70.6046 9.57014 69.7868 10.7086Z" fill="white"/>
<path fill-rule="evenodd" clip-rule="evenodd" d="M64.0257 13.5367C63.9844 12.2147 63.3802 11.4009 62.1051 11.4033C60.8441 11.4051 60.2098 12.3553 60.208 13.5367H64.0257ZM65.7327 16.8461L65.394 18.9258C63.9372 19.3434 62.2331 19.5192 60.6954 19.0926C59.3719 18.7257 58.4969 17.8666 58.1275 16.5399C57.7133 15.0511 57.7151 13.5456 58.193 12.0688C58.7146 10.4596 59.8764 9.64526 61.5132 9.48977C62.3181 9.41291 63.1205 9.45521 63.8888 9.74177C65.0571 10.1773 65.6943 11.0792 66.0106 12.2552C66.2626 13.1917 66.2219 14.1485 66.2012 15.1357H60.2163C60.1532 16.2861 60.7833 16.9771 61.6678 17.1797C62.5387 17.3787 63.4114 17.3072 64.2788 17.1565C64.7674 17.0713 65.2253 16.9575 65.7327 16.8461Z" fill="white"/>
<path fill-rule="evenodd" clip-rule="evenodd" d="M73.8583 19.1674H76.5903V16.5175H73.8583V19.1674Z" fill="white"/>
<path fill-rule="evenodd" clip-rule="evenodd" d="M88.3695 8.30351V6.10639H90.6672V8.30351H88.3695Z" fill="white"/>
<path fill-rule="evenodd" clip-rule="evenodd" d="M6.19555 10.7237C5.7064 10.7237 5.31047 10.3233 5.31047 9.83004V8.04279C5.31047 7.54951 5.7064 7.14917 6.19555 7.14917C6.68411 7.14917 7.08063 7.54951 7.08063 8.04279V9.83004C7.08063 10.3233 6.68411 10.7237 6.19555 10.7237Z" fill="white"/>
<path fill-rule="evenodd" clip-rule="evenodd" d="M13.2762 10.7237C12.787 10.7237 12.3911 10.3233 12.3911 9.83004V8.04279C12.3911 7.54951 12.787 7.14917 13.2762 7.14917C13.7647 7.14917 14.1613 7.54951 14.1613 8.04279V9.83004C14.1613 10.3233 13.7647 10.7237 13.2762 10.7237Z" fill="white"/>
<path fill-rule="evenodd" clip-rule="evenodd" d="M9.73587 16.0854C5.98785 16.0854 2.95026 12.8588 2.95026 8.87803C2.95026 8.20245 3.03995 7.54892 3.2034 6.92874V6.97581C3.58044 5.69614 4.7039 4.76618 6.03388 4.76618C7.67186 4.76618 8.85079 6.17691 8.85079 7.91709V11.2289C8.85079 11.7174 9.24317 12.1135 9.72702 12.1135H9.74472C10.2286 12.1135 10.6209 11.7174 10.6209 11.2289V7.91709C10.6209 6.17691 11.7993 4.76618 13.4379 4.76618C14.7678 4.76618 15.8913 5.69614 16.2683 6.9764V6.92874C16.4318 7.54892 16.5215 8.20245 16.5215 8.87803C16.5215 12.8588 13.4833 16.0854 9.73587 16.0854ZM12.3911 18.7675C12.3911 19.2601 11.9952 19.6599 11.5072 19.6599H11.5048C11.0163 19.6599 10.6209 19.2601 10.6209 18.7675V18.3796C10.6209 18.3481 10.6622 18.3409 10.6729 18.3707C10.7956 18.7144 11.1219 18.9605 11.5048 18.9605H11.5072C11.8901 18.9605 12.2159 18.7144 12.3392 18.3707C12.3492 18.3409 12.3911 18.3481 12.3911 18.3796V18.7675ZM10.6209 20.5547C10.6209 21.0474 10.225 21.4471 9.73705 21.4471H9.73469C9.24612 21.4471 8.85079 21.0474 8.85079 20.5547V20.1669C8.85079 20.1353 8.89209 20.1281 8.90271 20.1579C9.02544 20.5017 9.35174 20.7477 9.73469 20.7477H9.73705C10.12 20.7477 10.4457 20.5017 10.569 20.1579C10.5791 20.1281 10.6209 20.1353 10.6209 20.1669V20.5547ZM7.96689 19.6599H7.96453C7.47597 19.6599 7.08063 19.2601 7.08063 18.7675V18.3796C7.08063 18.3481 7.12193 18.3409 7.13255 18.3707C7.25528 18.7144 7.58158 18.9605 7.96453 18.9605H7.96689C8.34983 18.9605 8.67554 18.7144 8.79886 18.3707C8.80889 18.3409 8.85079 18.3481 8.85079 18.3796V18.7675C8.85079 19.2601 8.45486 19.6599 7.96689 19.6599ZM17.8579 3.8946L18.2373 1.78743H14.6634C12.4153 1.78743 10.5 3.2071 9.73587 5.20405C8.97175 3.2071 7.05585 1.78743 4.80775 1.78743H1.23439L1.61379 3.8946C0.573531 5.40601 0 7.27309 0 9.36059C0 18.9617 9.73587 25.0216 9.73587 25.0216C9.73587 25.0216 19.4717 18.9617 19.4717 9.36059C19.4717 7.27309 18.8982 5.40601 17.8579 3.8946Z" fill="white"/>
<path fill-rule="evenodd" clip-rule="evenodd" d="M13.5712 27.4046C13.5712 27.7335 11.8542 28.0004 9.73587 28.0004C7.61758 28.0004 5.90053 27.7335 5.90053 27.4046C5.90053 27.0752 7.61758 26.8089 9.73587 26.8089C11.8542 26.8089 13.5712 27.0752 13.5712 27.4046Z" fill="white"/>
<path fill-rule="evenodd" clip-rule="evenodd" d="M9.73587 3.7655C10.6628 2.2243 12.3356 1.19186 14.2521 1.19186H14.8215C13.3948 0.431092 11.6848 0.000366211 9.73587 0.000366211C7.78692 0.000366211 6.07695 0.431092 4.6502 1.19186H5.2196C7.1361 1.19186 8.80889 2.2243 9.73587 3.7655Z" fill="white"/>
</svg>
