<svg width="49" height="48" viewBox="0 0 49 48" fill="none" xmlns="http://www.w3.org/2000/svg">
<path d="M12.961 27.7125C12.9661 27.8141 12.9504 27.9157 12.915 28.0111C12.8796 28.1065 12.8252 28.1936 12.755 28.2673C12.6849 28.3409 12.6005 28.3996 12.5069 28.4396C12.4134 28.4796 12.3127 28.5002 12.211 28.5H3.9385C3.59994 28.5006 3.27116 28.3865 3.00563 28.1765C2.74011 27.9664 2.55344 27.6727 2.476 27.3432C2.42777 27.1176 2.43 26.8841 2.48251 26.6595C2.53502 26.4349 2.63652 26.2246 2.77975 26.0438C4.10314 24.2888 5.85904 22.9069 7.876 22.0332C6.99048 21.2258 6.31132 20.218 5.89539 19.0942C5.47946 17.9703 5.33887 16.7632 5.4854 15.5739C5.63192 14.3846 6.0613 13.2476 6.73757 12.2584C7.41384 11.2691 8.3173 10.4563 9.3723 9.88801C10.4273 9.31971 11.6031 9.01249 12.8013 8.99206C13.9994 8.97163 15.185 9.23859 16.2588 9.77059C17.3325 10.3026 18.2632 11.0841 18.9728 12.0498C19.6824 13.0154 20.1503 14.137 20.3372 15.3207C20.3614 15.4798 20.3329 15.6425 20.256 15.784C20.1792 15.9255 20.0583 16.038 19.9116 16.1044C17.8311 17.0662 16.0691 18.6031 14.8336 20.5337C13.598 22.4643 12.9405 24.708 12.9385 27C12.9385 27.24 12.9385 27.4763 12.961 27.7125ZM47.086 26.0419C45.7657 24.2889 44.0138 22.9078 42.001 22.0332C42.8865 21.2258 43.5657 20.218 43.9816 19.0942C44.3975 17.9703 44.5381 16.7632 44.3916 15.5739C44.2451 14.3846 43.8157 13.2476 43.1394 12.2584C42.4632 11.2691 41.5597 10.4563 40.5047 9.88801C39.4497 9.31971 38.2739 9.01249 37.0757 8.99206C35.8776 8.97163 34.692 9.23859 33.6182 9.77059C32.5445 10.3026 31.6138 11.0841 30.9042 12.0498C30.1946 13.0154 29.7267 14.137 29.5397 15.3207C29.5156 15.4798 29.5441 15.6425 29.6209 15.784C29.6978 15.9255 29.8187 16.038 29.9654 16.1044C32.0459 17.0662 33.8079 18.6031 35.0434 20.5337C36.279 22.4643 36.9365 24.708 36.9385 27C36.9385 27.24 36.9385 27.4763 36.916 27.7125C36.9109 27.8141 36.9265 27.9157 36.962 28.0111C36.9974 28.1065 37.0518 28.1936 37.122 28.2673C37.1921 28.3409 37.2765 28.3996 37.37 28.4396C37.4636 28.4796 37.5643 28.5002 37.666 28.5H45.9385C46.2771 28.5006 46.6058 28.3865 46.8714 28.1765C47.1369 27.9664 47.3235 27.6727 47.401 27.3432C47.4495 27.1172 47.4473 26.8832 47.3944 26.6582C47.3416 26.4332 47.2394 26.2227 47.0954 26.0419H47.086ZM30.3985 34.1382C31.892 32.9944 32.9896 31.4113 33.5369 29.6115C34.0843 27.8116 34.0539 25.8856 33.45 24.1039C32.8462 22.3222 31.6992 20.7746 30.1703 19.6785C28.6414 18.5824 26.8075 17.9929 24.9263 17.9929C23.0451 17.9929 21.2112 18.5824 19.6823 19.6785C18.1534 20.7746 17.0065 22.3222 16.4026 24.1039C15.7987 25.8856 15.7683 27.8116 16.3157 29.6115C16.863 31.4113 17.9606 32.9944 19.4541 34.1382C16.8039 35.2865 14.5909 37.2531 13.1391 39.75C13.0075 39.9781 12.9381 40.2368 12.9382 40.5001C12.9382 40.7635 13.0075 41.0221 13.1392 41.2502C13.2709 41.4782 13.4603 41.6676 13.6884 41.7992C13.9165 41.9308 14.1752 42.0001 14.4385 42H35.4385C35.7018 42.0001 35.9605 41.9308 36.1886 41.7992C36.4167 41.6676 36.6061 41.4782 36.7378 41.2502C36.8695 41.0221 36.9388 40.7635 36.9388 40.5001C36.9388 40.2368 36.8695 39.9781 36.7379 39.75C35.283 37.2514 33.0659 35.2847 30.4116 34.1382H30.3985Z" fill="#5E63E5"/>
</svg>
