<svg width="49" height="48" viewBox="0 0 49 48" fill="none" xmlns="http://www.w3.org/2000/svg">
<path d="M40.3965 8C41.1921 8 41.955 8.3163 42.5176 8.87891C43.0802 9.44152 43.3965 10.2044 43.3965 11V38C43.3965 38.7957 43.0802 39.5585 42.5176 40.1211C41.955 40.6837 41.1921 41 40.3965 41H7.39648C6.60084 41 5.838 40.6837 5.27539 40.1211C4.71278 39.5585 4.39648 38.7957 4.39648 38V11C4.39648 10.2044 4.71278 9.44152 5.27539 8.87891C5.838 8.3163 6.60083 8 7.39648 8H40.3965ZM10.3965 12.5C9.99866 12.5 9.61724 12.6581 9.33594 12.9395C9.05463 13.2208 8.89648 13.6022 8.89648 14V35C8.89648 35.3978 9.05463 35.7792 9.33594 36.0605C9.61724 36.3419 9.99866 36.5 10.3965 36.5H37.3965C37.7943 36.5 38.1757 36.3419 38.457 36.0605C38.7383 35.7792 38.8965 35.3978 38.8965 35C38.8965 34.6022 38.7383 34.2208 38.457 33.9395C38.1757 33.6581 37.7943 33.5 37.3965 33.5H11.8965L19.4961 25.166L27.5586 29.5459C27.8277 29.7253 28.1478 29.8131 28.4707 29.7959C28.7936 29.7786 29.1022 29.6571 29.3506 29.4502L38.3506 22.9502C38.6564 22.6956 38.8485 22.3298 38.8848 21.9336C38.921 21.5373 38.7985 21.1427 38.5439 20.8369C38.2893 20.5311 37.9236 20.339 37.5273 20.3027C37.1311 20.2665 36.7365 20.389 36.4307 20.6436L28.291 26.4277L20.2285 22.0479C19.9595 21.8686 19.6393 21.7806 19.3164 21.7979C18.9936 21.8152 18.6849 21.9366 18.4365 22.1436L11.8965 29.4307V17H14C14.5523 17 15 16.5523 15 16C15 15.4477 14.5523 15 14 15H11.8965V14C11.8965 13.6022 11.7383 13.2208 11.457 12.9395C11.1757 12.6581 10.7943 12.5 10.3965 12.5ZM18 15C17.4477 15 17 15.4477 17 16C17 16.5523 17.4477 17 18 17H22C22.5523 17 23 16.5523 23 16C23 15.4477 22.5523 15 22 15H18ZM26 15C25.4477 15 25 15.4477 25 16C25 16.5523 25.4477 17 26 17H30C30.5523 17 31 16.5523 31 16C31 15.4477 30.5523 15 30 15H26ZM34 15C33.4477 15 33 15.4477 33 16C33 16.5523 33.4477 17 34 17H38C38.5523 17 39 16.5523 39 16C39 15.4477 38.5523 15 38 15H34Z" fill="#676DFD"/>
</svg>
